<svg width="100" height="100" viewBox="0 0 100 100" fill="black" xmlns="http://www.w3.org/2000/svg">
<path class="insets" d="M42.029 79.0893C42.029 78.5589 42.2397 78.0502 42.6148 77.6751L47.8612 72.4287C48.6422 71.6477 49.9085 71.6477 50.6896 72.4287L55.936 77.6751C56.311 78.0502 56.5217 78.5589 56.5217 79.0893V98C56.5217 99.1046 55.6263 100 54.5217 100H44.029C42.9244 100 42.029 99.1046 42.029 98V79.0893Z"/>
<path class="insets" d="M56.5218 20.9107C56.5218 21.4411 56.311 21.9498 55.936 22.3249L50.6896 27.5713C49.9085 28.3523 48.6422 28.3523 47.8612 27.5713L42.6148 22.3249C42.2397 21.9498 42.029 21.4411 42.029 20.9107V2C42.029 0.895426 42.9244 -3.33786e-06 44.029 -3.33786e-06H54.5218C55.6263 -3.33786e-06 56.5218 0.895427 56.5218 2V20.9107Z"/>
<path class="insets" d="M79.0893 56.5217C78.5589 56.5217 78.0502 56.311 77.6751 55.936L72.4287 50.6896C71.6477 49.9085 71.6477 48.6422 72.4287 47.8612L77.6751 42.6148C78.0502 42.2397 78.5589 42.029 79.0893 42.029H98C99.1046 42.029 100 42.9244 100 44.029V54.5217C100 55.6263 99.1046 56.5217 98 56.5217H79.0893Z"/>
<path class="insets" d="M20.9107 42.029C21.4411 42.029 21.9498 42.2397 22.3249 42.6148L27.5713 47.8612C28.3523 48.6422 28.3523 49.9085 27.5713 50.6896L22.3249 55.936C21.9498 56.311 21.4411 56.5217 20.9107 56.5217H2C0.895426 56.5217 -3.33786e-06 55.6263 -3.33786e-06 54.5217V44.029C-3.33786e-06 42.9244 0.895427 42.029 2 42.029H20.9107Z"/>
<path class="cross" fill-rule="evenodd" clip-rule="evenodd" d="M14.3822 2.86345C15.1632 2.0824 16.4295 2.0824 17.2106 2.86345L48.2003 33.8532C48.9814 34.6342 50.2477 34.6342 51.0287 33.8532L82.0185 2.86346C82.7995 2.08241 84.0658 2.08241 84.8469 2.86346L96.3655 14.3821C97.1466 15.1632 97.1466 16.4295 96.3655 17.2106L65.3758 48.2003C64.5948 48.9813 64.5948 50.2476 65.3758 51.0287L96.3655 82.0184C97.1466 82.7995 97.1466 84.0658 96.3655 84.8468L84.8469 96.3655C84.0658 97.1466 82.7995 97.1466 82.0185 96.3655L51.0287 65.3758C50.2477 64.5947 48.9814 64.5947 48.2003 65.3758L17.2106 96.3655C16.4295 97.1466 15.1632 97.1466 14.3821 96.3655L2.86348 84.8468C2.08243 84.0658 2.08243 82.7995 2.86348 82.0184L33.8532 51.0287C34.6343 50.2476 34.6343 48.9813 33.8532 48.2003L2.86349 17.2105C2.08244 16.4295 2.08244 15.1632 2.86349 14.3821L14.3822 2.86345ZM44.7305 43.3922C43.8745 42.972 42.972 43.8745 43.3922 44.7305L45.4069 48.8347C45.5433 49.1126 45.5433 49.4381 45.4069 49.716L43.3922 53.8202C42.972 54.6762 43.8745 55.5787 44.7305 55.1585L48.8347 53.1438C49.1126 53.0074 49.4381 53.0074 49.716 53.1438L53.8202 55.1585C54.6762 55.5787 55.5787 54.6762 55.1585 53.8202L53.1438 49.716C53.0074 49.4381 53.0074 49.1126 53.1438 48.8347L55.1585 44.7305C55.5787 43.8745 54.6762 42.972 53.8202 43.3922L49.716 45.4069C49.4381 45.5433 49.1126 45.5433 48.8347 45.4069L44.7305 43.3922Z"/>
</svg>
